<svg width="428" height="50" viewBox="0 0 428 50" fill="none" xmlns="http://www.w3.org/2000/svg">
<rect width="428" height="50" fill="white"/>
<g clip-path="url(#clip0_65_566)">
<path d="M157.5 16.25C156.121 16.25 155 17.3713 155 18.75C155 19.0188 155.054 19.2725 155.133 19.5162L150.55 22.4325C149.601 21.0413 148.345 19.8812 146.886 19.0312L149.318 14.8938C149.536 14.9563 149.761 15 150 15C151.379 15 152.5 13.8788 152.5 12.5C152.5 11.1212 151.379 10 150 10C148.621 10 147.5 11.1212 147.5 12.5C147.5 13.19 147.781 13.8162 148.235 14.2688L145.773 18.4587C144.386 17.8475 142.859 17.5012 141.249 17.5012C135.046 17.5012 130 22.5488 130 28.7513C130 34.9538 135.046 40.0012 141.25 40.0012C147.454 40.0012 152.5 34.955 152.5 28.7513C152.5 26.8563 152.025 25.0725 151.194 23.5038L155.8 20.5725C156.246 20.99 156.841 21.25 157.5 21.25C158.879 21.25 160 20.1287 160 18.75C160 17.3713 158.879 16.25 157.5 16.25ZM150 11.25C150.69 11.25 151.25 11.8112 151.25 12.5C151.25 13.1888 150.69 13.75 150 13.75C149.31 13.75 148.75 13.1888 148.75 12.5C148.75 11.8112 149.31 11.25 150 11.25ZM140.477 31.475C144.746 30.4375 148.147 27.2388 149.44 23.03C150.003 23.8325 150.451 24.72 150.76 25.6712C149.66 29.245 146.78 32.0325 143.165 33.0012C142.192 32.6212 141.291 32.1038 140.477 31.475ZM148.454 21.8325C147.438 26.315 143.829 29.6937 139.299 30.4225C138.7 29.8025 138.179 29.11 137.741 28.3625C141.842 27.3825 145.172 24.2288 146.368 20.175C147.135 20.635 147.837 21.19 148.454 21.8325ZM136.435 24.8475C139.359 23.8975 141.738 21.7337 142.958 18.9075C143.755 19.0463 144.523 19.2725 145.244 19.5887C144.212 23.4288 141.04 26.415 137.153 27.22C136.825 26.4688 136.585 25.6737 136.435 24.8475ZM141.652 18.7712C140.567 21.0188 138.636 22.75 136.285 23.5825C136.271 23.3562 136.25 23.13 136.25 22.9C136.25 21.8637 136.409 20.8438 136.696 19.8588C138.064 19.155 139.61 18.75 141.25 18.75C141.386 18.75 141.517 18.765 141.652 18.77V18.7712ZM131.25 28.7513C131.25 27.6663 131.429 26.6237 131.75 25.645C132.365 32.4237 137.926 37.78 144.786 38.0938C143.685 38.5125 142.496 38.7512 141.249 38.7512C135.735 38.7512 131.25 34.265 131.25 28.7513ZM147.24 36.7388C146.64 36.8275 146.028 36.875 145.416 36.875C138.535 36.875 132.938 31.2763 132.938 24.3962C132.938 24.0338 132.949 23.5325 132.977 23.1425C133.586 22.2487 134.341 21.465 135.199 20.8088C135.079 21.4975 135 22.1937 135 22.9C135 29.5712 140.429 35 147.1 35C147.806 35 148.505 34.9212 149.194 34.8013C148.634 35.5337 147.978 36.185 147.241 36.7388H147.24ZM150.142 33.3037C149.158 33.5912 148.138 33.75 147.1 33.75C146.464 33.75 145.844 33.6838 145.237 33.5788C147.83 32.4325 149.943 30.4075 151.206 27.8737C151.231 28.1637 151.251 28.455 151.251 28.7513C151.251 30.3913 150.845 31.9362 150.142 33.3037ZM157.5 20C156.81 20 156.25 19.4388 156.25 18.75C156.25 18.0612 156.81 17.5 157.5 17.5C158.19 17.5 158.75 18.0612 158.75 18.75C158.75 19.4388 158.19 20 157.5 20Z" fill="#D5BCFF"/>
</g>
<path d="M187.916 14.1V30.004C187.916 33.204 187.084 35.6467 185.42 37.332C183.756 39.0173 181.452 39.86 178.508 39.86C176.674 39.86 175.02 39.5613 173.548 38.964C172.098 38.388 170.882 37.5453 169.9 36.436L170.988 34.612C172.887 36.7027 175.394 37.748 178.508 37.748C180.812 37.748 182.562 37.108 183.756 35.828C184.951 34.548 185.548 32.628 185.548 30.068V27.06C184.098 29.5987 181.676 30.868 178.284 30.868C175.511 30.868 173.346 30.0787 171.788 28.5C170.231 26.9 169.452 24.6067 169.452 21.62V14.1H171.82V21.524C171.82 23.892 172.407 25.6947 173.58 26.932C174.754 28.148 176.396 28.756 178.508 28.756C180.727 28.756 182.455 28.116 183.692 26.836C184.93 25.5347 185.548 23.5933 185.548 21.012V14.1H187.916ZM209.903 19.668V36.5H207.727V33.172C207.044 34.3027 206.138 35.1667 205.007 35.764C203.898 36.3613 202.639 36.66 201.231 36.66C199.652 36.66 198.223 36.2973 196.943 35.572C195.663 34.8467 194.66 33.8333 193.935 32.532C193.21 31.2307 192.847 29.748 192.847 28.084C192.847 26.42 193.21 24.9373 193.935 23.636C194.66 22.3347 195.663 21.332 196.943 20.628C198.223 19.9027 199.652 19.54 201.231 19.54C202.596 19.54 203.823 19.828 204.911 20.404C206.02 20.9587 206.927 21.78 207.631 22.868V19.668H209.903ZM201.423 34.644C202.596 34.644 203.652 34.3773 204.591 33.844C205.551 33.2893 206.298 32.5107 206.831 31.508C207.386 30.5053 207.663 29.364 207.663 28.084C207.663 26.804 207.386 25.6627 206.831 24.66C206.298 23.6573 205.551 22.8893 204.591 22.356C203.652 21.8013 202.596 21.524 201.423 21.524C200.228 21.524 199.151 21.8013 198.191 22.356C197.252 22.8893 196.506 23.6573 195.951 24.66C195.418 25.6627 195.151 26.804 195.151 28.084C195.151 29.364 195.418 30.5053 195.951 31.508C196.506 32.5107 197.252 33.2893 198.191 33.844C199.151 34.3773 200.228 34.644 201.423 34.644ZM218.407 22.964C218.94 21.8333 219.729 20.98 220.775 20.404C221.841 19.828 223.153 19.54 224.711 19.54V21.748L224.167 21.716C222.396 21.716 221.009 22.26 220.007 23.348C219.004 24.436 218.503 25.9613 218.503 27.924V36.5H216.231V19.668H218.407V22.964ZM237.4 19.54C239.512 19.54 241.187 20.1587 242.424 21.396C243.683 22.612 244.312 24.3933 244.312 26.74V36.5H242.04V26.964C242.04 25.2147 241.603 23.8813 240.728 22.964C239.854 22.0467 238.606 21.588 236.984 21.588C235.171 21.588 233.731 22.132 232.664 23.22C231.619 24.2867 231.096 25.7693 231.096 27.668V36.5H228.824V19.668H231V22.772C231.619 21.748 232.472 20.9587 233.56 20.404C234.67 19.828 235.95 19.54 237.4 19.54ZM265.649 19.668V34.452C265.649 37.3107 264.998 39.4227 263.697 40.788C262.395 42.1747 260.433 42.868 257.809 42.868C256.337 42.868 254.939 42.6333 253.617 42.164C252.315 41.716 251.259 41.0867 250.449 40.276L251.601 38.548C252.326 39.2733 253.222 39.8387 254.289 40.244C255.355 40.6493 256.497 40.852 257.713 40.852C259.654 40.852 261.083 40.3507 262.001 39.348C262.918 38.3667 263.377 36.8307 263.377 34.74V32.788C262.779 33.7693 261.958 34.5267 260.913 35.06C259.889 35.5933 258.726 35.86 257.425 35.86C255.227 35.86 253.489 35.252 252.209 34.036C250.95 32.7987 250.321 30.996 250.321 28.628V19.668H252.593V28.404C252.593 30.1747 253.03 31.5187 253.905 32.436C254.779 33.3533 256.027 33.812 257.649 33.812C259.419 33.812 260.817 33.2787 261.841 32.212C262.865 31.124 263.377 29.62 263.377 27.7V19.668H265.649Z" fill="#D5BCFF"/>
<g clip-path="url(#clip1_65_566)">
<path d="M302.5 16.25C301.121 16.25 300 17.3713 300 18.75C300 19.0188 300.054 19.2725 300.133 19.5162L295.55 22.4325C294.601 21.0413 293.345 19.8812 291.886 19.0312L294.318 14.8938C294.536 14.9563 294.761 15 295 15C296.379 15 297.5 13.8788 297.5 12.5C297.5 11.1212 296.379 10 295 10C293.621 10 292.5 11.1212 292.5 12.5C292.5 13.19 292.781 13.8162 293.235 14.2688L290.773 18.4587C289.386 17.8475 287.859 17.5012 286.249 17.5012C280.046 17.5012 275 22.5488 275 28.7513C275 34.9538 280.046 40.0012 286.25 40.0012C292.454 40.0012 297.5 34.955 297.5 28.7513C297.5 26.8563 297.025 25.0725 296.194 23.5038L300.8 20.5725C301.246 20.99 301.841 21.25 302.5 21.25C303.879 21.25 305 20.1287 305 18.75C305 17.3713 303.879 16.25 302.5 16.25ZM295 11.25C295.69 11.25 296.25 11.8112 296.25 12.5C296.25 13.1888 295.69 13.75 295 13.75C294.31 13.75 293.75 13.1888 293.75 12.5C293.75 11.8112 294.31 11.25 295 11.25ZM285.477 31.475C289.746 30.4375 293.147 27.2388 294.44 23.03C295.003 23.8325 295.451 24.72 295.76 25.6712C294.66 29.245 291.78 32.0325 288.165 33.0012C287.192 32.6212 286.291 32.1038 285.477 31.475ZM293.454 21.8325C292.438 26.315 288.829 29.6937 284.299 30.4225C283.7 29.8025 283.179 29.11 282.741 28.3625C286.842 27.3825 290.172 24.2288 291.368 20.175C292.135 20.635 292.837 21.19 293.454 21.8325ZM281.435 24.8475C284.359 23.8975 286.738 21.7337 287.958 18.9075C288.755 19.0463 289.523 19.2725 290.244 19.5887C289.212 23.4288 286.04 26.415 282.153 27.22C281.825 26.4688 281.585 25.6737 281.435 24.8475ZM286.652 18.7712C285.567 21.0188 283.636 22.75 281.285 23.5825C281.271 23.3562 281.25 23.13 281.25 22.9C281.25 21.8637 281.409 20.8438 281.696 19.8588C283.064 19.155 284.61 18.75 286.25 18.75C286.386 18.75 286.517 18.765 286.652 18.77V18.7712ZM276.25 28.7513C276.25 27.6663 276.429 26.6237 276.75 25.645C277.365 32.4237 282.926 37.78 289.786 38.0938C288.685 38.5125 287.496 38.7512 286.249 38.7512C280.735 38.7512 276.25 34.265 276.25 28.7513ZM292.24 36.7388C291.64 36.8275 291.028 36.875 290.416 36.875C283.535 36.875 277.938 31.2763 277.938 24.3962C277.938 24.0338 277.949 23.5325 277.977 23.1425C278.586 22.2487 279.341 21.465 280.199 20.8088C280.079 21.4975 280 22.1937 280 22.9C280 29.5712 285.429 35 292.1 35C292.806 35 293.505 34.9212 294.194 34.8013C293.634 35.5337 292.978 36.185 292.241 36.7388H292.24ZM295.142 33.3037C294.158 33.5912 293.138 33.75 292.1 33.75C291.464 33.75 290.844 33.6838 290.237 33.5788C292.83 32.4325 294.943 30.4075 296.206 27.8737C296.231 28.1637 296.251 28.455 296.251 28.7513C296.251 30.3913 295.845 31.9362 295.142 33.3037ZM302.5 20C301.81 20 301.25 19.4388 301.25 18.75C301.25 18.0612 301.81 17.5 302.5 17.5C303.19 17.5 303.75 18.0612 303.75 18.75C303.75 19.4388 303.19 20 302.5 20Z" fill="#D5BCFF"/>
</g>
<defs>
<clipPath id="clip0_65_566">
<rect width="30" height="30" fill="white" transform="translate(130 10)"/>
</clipPath>
<clipPath id="clip1_65_566">
<rect width="30" height="30" fill="white" transform="translate(275 10)"/>
</clipPath>
</defs>
</svg>
