<svg width="200" height="200" viewBox="0 0 200 200" fill="none" xmlns="http://www.w3.org/2000/svg">
<g clip-path="url(#clip0_513_168)">
<path d="M191.664 150H166.664V125C166.664 122.789 165.786 120.67 164.223 119.107C162.66 117.544 160.54 116.666 158.33 116.666C156.12 116.666 154 117.544 152.438 119.107C150.875 120.67 149.997 122.789 149.997 125V150H124.997C122.787 150 120.667 150.878 119.104 152.44C117.542 154.003 116.664 156.123 116.664 158.333C116.664 160.543 117.542 162.663 119.104 164.225C120.667 165.788 122.787 166.666 124.997 166.666H149.997V191.666C149.997 193.876 150.875 195.996 152.438 197.559C154 199.122 156.12 200 158.33 200C160.54 200 162.66 199.122 164.223 197.559C165.786 195.996 166.664 193.876 166.664 191.666V166.666H191.664C193.874 166.666 195.993 165.788 197.556 164.225C199.119 162.663 199.997 160.543 199.997 158.333C199.997 156.123 199.119 154.003 197.556 152.44C195.993 150.878 193.874 150 191.664 150Z" fill="#FDBCE5"/>
<path d="M91.6635 58.3329V96.5496L69.1052 119.108C68.3093 119.877 67.6744 120.796 67.2377 121.813C66.8009 122.83 66.5711 123.923 66.5615 125.03C66.5518 126.136 66.7627 127.233 67.1817 128.258C67.6007 129.282 68.2195 130.212 69.0019 130.995C69.7844 131.777 70.7148 132.396 71.7389 132.815C72.7631 133.234 73.8604 133.445 74.9669 133.435C76.0734 133.425 77.1669 133.196 78.1836 132.759C79.2003 132.322 80.1198 131.687 80.8885 130.891L105.889 105.891C107.451 104.329 108.33 102.21 108.33 99.9996V58.3329C108.33 56.1228 107.452 54.0032 105.889 52.4404C104.327 50.8776 102.207 49.9996 99.9969 49.9996C97.7867 49.9996 95.6671 50.8776 94.1043 52.4404C92.5415 54.0032 91.6635 56.1228 91.6635 58.3329Z" fill="#FDBCE5"/>
<path d="M122.73 180.2C105.009 185.194 86.1317 184.17 69.0548 177.288C51.9779 170.405 37.6659 158.054 28.3602 142.167C19.0546 126.28 15.2808 107.755 17.6301 89.4943C19.9793 71.2333 28.3188 54.267 41.3424 41.2528C54.3661 28.2386 71.3384 19.9114 89.6012 17.5754C107.864 15.2394 126.386 19.0266 142.266 28.3437C158.146 37.6609 170.487 51.9819 177.357 69.0638C184.227 86.1456 185.238 105.024 180.23 122.741C179.891 123.806 179.77 124.929 179.874 126.042C179.978 127.155 180.305 128.235 180.835 129.219C181.365 130.204 182.088 131.071 182.96 131.77C183.832 132.469 184.836 132.985 185.912 133.289C186.988 133.592 188.114 133.675 189.222 133.534C190.331 133.393 191.4 133.031 192.366 132.468C193.332 131.905 194.175 131.154 194.844 130.259C195.514 129.364 195.997 128.343 196.264 127.258C202.275 105.981 201.06 83.311 192.807 62.7992C184.554 42.2873 169.73 25.0925 150.657 13.9085C131.585 2.72438 109.341 -1.81714 87.4105 0.995356C65.4802 3.80786 45.1024 13.8155 29.4693 29.4505C13.8362 45.0855 3.83102 65.4645 1.02117 87.3951C-1.78869 109.326 2.75552 131.569 13.9419 150.64C25.1283 169.711 42.3249 184.533 62.8377 192.784C83.3505 201.034 106.021 202.247 127.297 196.233C128.373 195.956 129.383 195.467 130.267 194.794C131.152 194.122 131.892 193.279 132.446 192.316C133 191.352 133.356 190.288 133.492 189.185C133.629 188.083 133.543 186.964 133.241 185.895C132.939 184.826 132.426 183.828 131.732 182.96C131.038 182.092 130.178 181.371 129.202 180.84C128.226 180.31 127.153 179.98 126.047 179.87C124.942 179.76 123.825 179.872 122.764 180.2H122.73Z" fill="#FDBCE5"/>
</g>
<defs>
<clipPath id="clip0_513_168">
<rect width="200" height="200" fill="white"/>
</clipPath>
</defs>
</svg>
