<svg width="31" height="27" viewBox="0 0 31 27" fill="none" xmlns="http://www.w3.org/2000/svg">
<path d="M2.13867 9.18066L2.1377 9.15234C2.07233 7.41964 2.65205 5.72836 3.75781 4.40332L3.98633 4.14355C5.2297 2.79497 6.95241 1.98999 8.7832 1.89844C9.91198 1.92341 11.0148 2.24112 11.9834 2.82227C12.9642 3.41074 13.7723 4.24732 14.3262 5.24805L15.6387 7.61914L16.9512 5.24805C17.505 4.24742 18.3133 3.41073 19.2939 2.82227C20.2621 2.24135 21.3649 1.92364 22.4932 1.89844C24.3244 1.98966 26.0473 2.79473 27.291 4.14355C28.5447 5.50337 29.2094 7.30408 29.1396 9.15234L29.1387 9.18066V9.20898C29.1387 11.5572 27.8823 14.2036 25.8271 16.9033C24.0524 19.2345 21.7962 21.4578 19.6074 23.3633L18.6748 24.1602H18.6738C17.8238 24.8744 16.7489 25.2666 15.6387 25.2666C14.5979 25.2666 13.5881 24.9226 12.7656 24.291L12.6035 24.1602H12.6025C10.1358 22.0911 7.47943 19.5675 5.45117 16.9033C3.39588 14.2036 2.13867 11.5572 2.13867 9.20898V9.18066Z" fill="white" stroke="#FF00A1" stroke-width="3"/>
</svg>
