<svg width="31" height="27" viewBox="0 0 31 27" fill="none" xmlns="http://www.w3.org/2000/svg">
<path d="M22.5139 0.396484C21.1063 0.418378 19.7294 0.811301 18.5223 1.53557C17.3152 2.25985 16.3206 3.28982 15.6389 4.52148C14.9572 3.28982 13.9625 2.25985 12.7554 1.53557C11.5483 0.811301 10.1714 0.418378 8.76386 0.396484C6.52004 0.493973 4.406 1.47555 2.88359 3.12677C1.36119 4.778 0.554176 6.96464 0.638864 9.20898C0.638864 14.8927 6.62136 21.1002 11.6389 25.309C12.7591 26.2504 14.1756 26.7665 15.6389 26.7665C17.1022 26.7665 18.5186 26.2504 19.6389 25.309C24.6564 21.1002 30.6389 14.8927 30.6389 9.20898C30.7236 6.96464 29.9165 4.778 28.3941 3.12677C26.8717 1.47555 24.7577 0.493973 22.5139 0.396484Z" fill="#FF00A1"/>
</svg>
