<svg width="30" height="30" viewBox="0 0 30 30" fill="none" xmlns="http://www.w3.org/2000/svg">
<g clip-path="url(#clip0_188_198)">
<path d="M21.8732 2.39648C20.4657 2.41838 19.0888 2.8113 17.8817 3.53557C16.6746 4.25985 15.6799 5.28982 14.9982 6.52148C14.3165 5.28982 13.3219 4.25985 12.1148 3.53557C10.9077 2.8113 9.5308 2.41838 8.12324 2.39648C5.87942 2.49397 3.76537 3.47555 2.24297 5.12678C0.720563 6.778 -0.0864493 8.96464 -0.00176112 11.209C-0.00176112 16.8927 5.98074 23.1002 10.9982 27.309C12.1185 28.2504 13.5349 28.7665 14.9982 28.7665C16.4615 28.7665 17.878 28.2504 18.9982 27.309C24.0157 23.1002 29.9982 16.8927 29.9982 11.209C30.0829 8.96464 29.2759 6.778 27.7535 5.12678C26.2311 3.47555 24.1171 2.49397 21.8732 2.39648ZM17.392 25.3965C16.722 25.9607 15.8742 26.2701 14.9982 26.2701C14.1223 26.2701 13.2745 25.9607 12.6045 25.3965C6.18199 20.0077 2.49824 14.8377 2.49824 11.209C2.41279 9.62738 2.9562 8.07615 4.00994 6.89361C5.06369 5.71107 6.54228 4.99317 8.12324 4.89648C9.7042 4.99317 11.1828 5.71107 12.2365 6.89361C13.2903 8.07615 13.8337 9.62738 13.7482 11.209C13.7482 11.5405 13.8799 11.8584 14.1144 12.0929C14.3488 12.3273 14.6667 12.459 14.9982 12.459C15.3298 12.459 15.6477 12.3273 15.8821 12.0929C16.1165 11.8584 16.2482 11.5405 16.2482 11.209C16.1628 9.62738 16.7062 8.07615 17.7599 6.89361C18.8137 5.71107 20.2923 4.99317 21.8732 4.89648C23.4542 4.99317 24.9328 5.71107 25.9865 6.89361C27.0403 8.07615 27.5837 9.62738 27.4982 11.209C27.4982 14.8377 23.8145 20.0077 17.392 25.3915V25.3965Z" fill="#FFBD96"/>
</g>
<defs>
<clipPath id="clip0_188_198">
<rect width="30" height="30" fill="white"/>
</clipPath>
</defs>
</svg>
