<svg width="30" height="30" viewBox="0 0 30 30" fill="none" xmlns="http://www.w3.org/2000/svg">
<g clip-path="url(#clip0_47_20)">
<path d="M28.1267 4.96973H24.2692C24.022 4.96978 23.7804 5.04312 23.5749 5.18047C23.3694 5.31783 23.2092 5.51303 23.1146 5.74141C23.02 5.96978 22.9953 6.22107 23.0435 6.46352C23.0917 6.70596 23.2107 6.92866 23.3855 7.10348L24.743 8.46098L20.2605 12.9422C20.0223 13.1698 19.7056 13.2969 19.3761 13.2969C19.0467 13.2969 18.7299 13.1698 18.4917 12.9422L18.2792 12.7285C17.565 12.0461 16.6152 11.6653 15.6274 11.6653C14.6395 11.6653 13.6897 12.0461 12.9755 12.7285L6.60048 19.1035C6.3656 19.339 6.23391 19.6582 6.23438 19.9909C6.23485 20.3235 6.36744 20.6423 6.60298 20.8772C6.83853 21.1121 7.15773 21.2438 7.49037 21.2433C7.82302 21.2429 8.14185 21.1103 8.37673 20.8747L14.7517 14.4997C14.9898 14.2718 15.3066 14.1446 15.6361 14.1446C15.9656 14.1446 16.2825 14.2718 16.5205 14.4997L16.733 14.7135C17.4475 15.3953 18.3972 15.7757 19.3849 15.7757C20.3725 15.7757 21.3222 15.3953 22.0367 14.7135L26.5192 10.231L27.8767 11.5885C28.0521 11.7604 28.2743 11.8769 28.5155 11.9233C28.7567 11.9697 29.0062 11.944 29.2329 11.8495C29.4596 11.755 29.6534 11.5957 29.7901 11.3917C29.9269 11.1876 30.0005 10.9478 30.0017 10.7022V6.84473C30.0017 6.34745 29.8042 5.87053 29.4526 5.5189C29.1009 5.16727 28.624 4.96973 28.1267 4.96973Z" fill="#FDD5BD"/>
<path d="M28.75 27.47H6.25C5.25544 27.47 4.30161 27.0749 3.59835 26.3717C2.89509 25.6684 2.5 24.7146 2.5 23.72V1.25C2.5 0.918479 2.3683 0.600537 2.13388 0.366117C1.89946 0.131696 1.58152 0 1.25 0C0.918479 0 0.600537 0.131696 0.366117 0.366117C0.131696 0.600537 0 0.918479 0 1.25L0 23.72C0.00198482 25.377 0.661102 26.9656 1.83277 28.1372C3.00445 29.3089 4.59301 29.968 6.25 29.97H28.75C29.0815 29.97 29.3995 29.8383 29.6339 29.6039C29.8683 29.3695 30 29.0515 30 28.72C30 28.3885 29.8683 28.0705 29.6339 27.8361C29.3995 27.6017 29.0815 27.47 28.75 27.47Z" fill="#FDD5BD"/>
</g>
<defs>
<clipPath id="clip0_47_20">
<rect width="30" height="30" fill="white"/>
</clipPath>
</defs>
</svg>
