<svg width="30" height="30" viewBox="0 0 30 30" fill="none" xmlns="http://www.w3.org/2000/svg">
<path d="M23.75 2.5H6.25C2.80375 2.5 0 5.30375 0 8.75V21.25C0 24.6963 2.80375 27.5 6.25 27.5H23.75C27.1963 27.5 30 24.6963 30 21.25V8.75C30 5.30375 27.1963 2.5 23.75 2.5ZM27.5 21.25C27.5 23.3175 25.8175 25 23.75 25H6.25C4.1825 25 2.5 23.3175 2.5 21.25V8.75C2.5 6.6825 4.1825 5 6.25 5H23.75C25.8175 5 27.5 6.6825 27.5 8.75V21.25ZM13.75 21.25C13.75 21.9412 13.19 22.5 12.5 22.5H6.25C5.56 22.5 5 21.9412 5 21.25C5 20.5588 5.56 20 6.25 20H12.5C13.19 20 13.75 20.5588 13.75 21.25ZM25 21.25C25 21.9412 24.4412 22.5 23.75 22.5H17.5C16.8088 22.5 16.25 21.9412 16.25 21.25C16.25 20.5588 16.8088 20 17.5 20H23.75C24.4412 20 25 20.5588 25 21.25ZM5 11.25V8.75C5 8.06 5.56 7.5 6.25 7.5H17.5C18.19 7.5 18.75 8.06 18.75 8.75V11.25C18.75 11.94 18.19 12.5 17.5 12.5H6.25C5.56 12.5 5 11.94 5 11.25ZM5 16.25C5 15.5588 5.56 15 6.25 15H7.5C8.19 15 8.75 15.5588 8.75 16.25C8.75 16.9412 8.19 17.5 7.5 17.5H6.25C5.56 17.5 5 16.9412 5 16.25ZM13.75 16.25C13.75 16.9412 13.19 17.5 12.5 17.5H11.25C10.56 17.5 10 16.9412 10 16.25C10 15.5588 10.56 15 11.25 15H12.5C13.19 15 13.75 15.5588 13.75 16.25ZM16.25 17.5C15.56 17.5 15 16.9412 15 16.25C15 15.5588 15.56 15 16.25 15H17.5C18.1912 15 18.75 15.5588 18.75 16.25C18.75 16.9412 18.1912 17.5 17.5 17.5H16.25Z" fill="#FFBD96"/>
</svg>
