<svg width="200" height="200" viewBox="0 0 200 200" fill="none" xmlns="http://www.w3.org/2000/svg">
<g clip-path="url(#clip0_513_166)">
<path d="M192.675 75.5746L129.467 12.358C121.644 4.55786 111.047 0.177734 100 0.177734C88.9529 0.177734 78.3564 4.55786 70.5334 12.358L7.3251 75.5746C4.99531 77.8895 3.14818 80.6438 1.89079 83.6778C0.633394 86.7119 -0.00925334 89.9653 0.000100662 93.2496V175.058C0.000100662 181.688 2.63402 188.047 7.32243 192.736C12.0108 197.424 18.3697 200.058 25.0001 200.058H175C181.631 200.058 187.989 197.424 192.678 192.736C197.366 188.047 200 181.688 200 175.058V93.2496C200.009 89.9653 199.367 86.7119 198.109 83.6778C196.852 80.6438 195.005 77.8895 192.675 75.5746ZM125 183.391H75.0001V150.608C75.0001 143.978 77.634 137.619 82.3224 132.93C87.0108 128.242 93.3697 125.608 100 125.608C106.631 125.608 112.989 128.242 117.678 132.93C122.366 137.619 125 143.978 125 150.608V183.391ZM183.333 175.058C183.333 177.268 182.455 179.388 180.893 180.951C179.33 182.513 177.21 183.391 175 183.391H141.667V150.608C141.667 139.557 137.277 128.959 129.463 121.145C121.649 113.331 111.051 108.941 100 108.941C88.9494 108.941 78.3513 113.331 70.5373 121.145C62.7233 128.959 58.3334 139.557 58.3334 150.608V183.391H25.0001C22.79 183.391 20.6703 182.513 19.1075 180.951C17.5447 179.388 16.6668 177.268 16.6668 175.058V93.2496C16.6745 91.0411 17.5517 88.9245 19.1084 87.3579L82.3168 24.1663C87.0143 19.4907 93.3723 16.8658 100 16.8658C106.628 16.8658 112.986 19.4907 117.683 24.1663L180.892 87.3829C182.442 88.9433 183.319 91.0498 183.333 93.2496V175.058Z" fill="#FDBCE5"/>
</g>
<defs>
<clipPath id="clip0_513_166">
<rect width="200" height="200" fill="white"/>
</clipPath>
</defs>
</svg>
