<svg width="200" height="200" viewBox="0 0 200 200" fill="none" xmlns="http://www.w3.org/2000/svg">
<g clip-path="url(#clip0_513_172)">
<path d="M100 100C109.889 100 119.556 97.0676 127.779 91.5735C136.001 86.0794 142.41 78.2705 146.194 69.1342C149.978 59.9979 150.969 49.9446 149.039 40.2455C147.11 30.5465 142.348 21.6373 135.355 14.6447C128.363 7.65206 119.454 2.89002 109.755 0.960759C100.055 -0.968503 90.0021 0.0216643 80.8658 3.80605C71.7295 7.59043 63.9206 13.9991 58.4265 22.2215C52.9325 30.444 50 40.111 50 50C50.0132 63.2568 55.2853 75.9668 64.6593 85.3408C74.0332 94.7147 86.7432 99.9868 100 100ZM100 16.6667C106.593 16.6667 113.037 18.6217 118.519 22.2844C124.001 25.9471 128.273 31.153 130.796 37.2439C133.319 43.3348 133.979 50.037 132.693 56.503C131.407 62.9691 128.232 68.9085 123.57 73.5703C118.908 78.232 112.969 81.4067 106.503 82.6929C100.037 83.979 93.3348 83.3189 87.2439 80.796C81.153 78.2731 75.9471 74.0007 72.2844 68.519C68.6216 63.0374 66.6667 56.5927 66.6667 50C66.6667 41.1595 70.1786 32.681 76.4298 26.4298C82.681 20.1786 91.1595 16.6667 100 16.6667Z" fill="#FDBCE5"/>
<path d="M100 116.667C80.1155 116.689 61.0518 124.598 46.9914 138.658C32.9309 152.719 25.0221 171.783 25 191.667C25 193.877 25.878 195.997 27.4408 197.56C29.0036 199.122 31.1232 200 33.3333 200C35.5435 200 37.6631 199.122 39.2259 197.56C40.7887 195.997 41.6667 193.877 41.6667 191.667C41.6667 176.196 47.8125 161.359 58.7521 150.419C69.6917 139.48 84.529 133.334 100 133.334C115.471 133.334 130.308 139.48 141.248 150.419C152.188 161.359 158.333 176.196 158.333 191.667C158.333 193.877 159.211 195.997 160.774 197.56C162.337 199.122 164.457 200 166.667 200C168.877 200 170.996 199.122 172.559 197.56C174.122 195.997 175 193.877 175 191.667C174.978 171.783 167.069 152.719 153.009 138.658C138.948 124.598 119.884 116.689 100 116.667Z" fill="#FDBCE5"/>
</g>
<defs>
<clipPath id="clip0_513_172">
<rect width="200" height="200" fill="white"/>
</clipPath>
</defs>
</svg>
