<svg width="200" height="200" viewBox="0 0 200 200" fill="none" xmlns="http://www.w3.org/2000/svg">
<g clip-path="url(#clip0_290_286)">
<path d="M197.567 185.931L147.826 136.19C161.381 119.611 168.045 98.4571 166.441 77.1027C164.837 55.7483 155.086 35.8275 139.205 21.4607C123.325 7.09397 102.531 -0.619512 81.1226 -0.0842466C59.7147 0.451018 39.3314 9.19408 24.189 24.3365C9.04662 39.4789 0.303558 59.8621 -0.231708 81.2701C-0.766973 102.678 6.94651 123.473 21.3133 139.353C35.68 155.233 55.6008 164.984 76.9553 166.588C98.3097 168.193 119.464 161.528 136.042 147.973L185.784 197.715C187.356 199.233 189.461 200.073 191.646 200.054C193.831 200.035 195.921 199.158 197.466 197.613C199.011 196.068 199.887 193.978 199.906 191.793C199.925 189.608 199.085 187.503 197.567 185.931ZM83.3423 150.156C70.1568 150.156 57.2675 146.246 46.3042 138.921C35.341 131.596 26.7961 121.184 21.7503 109.002C16.7044 96.8202 15.3842 83.4158 17.9566 70.4837C20.5289 57.5516 26.8783 45.6728 36.2018 36.3493C45.5253 27.0258 57.4042 20.6764 70.3362 18.104C83.2683 15.5317 96.6727 16.8519 108.854 21.8977C121.036 26.9436 131.448 35.4884 138.774 46.4517C146.099 57.415 150.009 70.3043 150.009 83.4897C149.989 101.165 142.959 118.11 130.461 130.608C117.963 143.106 101.017 150.137 83.3423 150.156Z" fill="white"/>
</g>
<defs>
<clipPath id="clip0_290_286">
<rect width="200" height="200" fill="white"/>
</clipPath>
</defs>
</svg>
